# xmcd CD database file
#
# Track frame offsets:
#	150
#	18482
#	34970
#	66200
#	77110
#	97730
#	109322
#	128297
#	158930
#	169965
#	187600
#
# Disc length: 3086 seconds
#
# Revision: 0
# Processed by: cddbd v1.4PL0 Copyright (c) Steve Scherf et al.
# Submitted via: CDex 1.40Beta6
#
DISCID=810c0c0b
DTITLE=DripPin' Honey - Drip Drip
DYEAR=1998
DGENRE=Blues
TTITLE0=Cross eyed cat
TTITLE1=Sit Down Baby
TTITLE2=Heat
TTITLE3=Crazy Killin' Joe
TTITLE4=IIIII IIIII IIIII IIIII (20)
TTITLE5=Trick Baby
TTITLE6=I think (I know)
TTITLE7=6.45
TTITLE8=Shazam!
TTITLE9=Cut you loose
TTITLE10=Blood Moon
EXTD=
EXTT0=
EXTT1=
EXTT2=
EXTT3=
EXTT4=
EXTT5=
EXTT6=
EXTT7=
EXTT8=
EXTT9=
EXTT10=
PLAYORDER=
